<?xml version="1.0" standalone="no"?>
<!DOCTYPE svg PUBLIC "-//W3C//DTD SVG 20010904//EN"
 "http://www.w3.org/TR/2001/REC-SVG-20010904/DTD/svg10.dtd">
<svg version="1.0" xmlns="http://www.w3.org/2000/svg"
 width="2100.000000pt" height="2100.000000pt" viewBox="0 0 2100.000000 2100.000000"
 preserveAspectRatio="xMidYMid meet">
<metadata>
Created by potrace 1.11, written by Peter Selinger 2001-2013
</metadata>
<g transform="translate(0.000000,2100.000000) scale(0.100000,-0.100000)"
fill="#000000" stroke="none">
<path d="M8505 20721 c-27 -16 -61 -39 -76 -52 -14 -13 -54 -49 -90 -79 -35
-30 -69 -59 -75 -65 -6 -5 -35 -30 -64 -55 -29 -25 -58 -50 -64 -56 -6 -5 -45
-39 -86 -74 -41 -36 -80 -69 -86 -75 -10 -9 -63 -55 -144 -124 -37 -32 -120
-104 -134 -116 -6 -6 -42 -37 -81 -70 -38 -33 -74 -65 -80 -71 -5 -5 -39 -34
-75 -64 -36 -30 -69 -59 -75 -64 -5 -6 -39 -36 -75 -66 -36 -30 -67 -57 -70
-60 -3 -3 -23 -20 -45 -39 -84 -72 -159 -137 -187 -163 -16 -16 -31 -28 -33
-28 -2 0 -16 -11 -31 -25 -16 -14 -47 -43 -71 -63 -24 -20 -59 -50 -77 -67
-18 -16 -68 -59 -111 -95 -42 -36 -98 -84 -122 -107 -25 -24 -47 -43 -49 -43
-2 0 -12 -8 -22 -17 -11 -10 -28 -25 -38 -33 -10 -9 -42 -36 -69 -60 -28 -25
-77 -67 -109 -95 -32 -27 -66 -57 -76 -65 -9 -8 -43 -37 -75 -65 -32 -27 -66
-57 -75 -65 -9 -8 -43 -37 -75 -65 -33 -27 -69 -59 -81 -70 -12 -11 -45 -40
-74 -65 -29 -25 -61 -52 -70 -60 -9 -8 -47 -42 -85 -75 -39 -32 -77 -66 -86
-75 -9 -8 -27 -24 -40 -34 -37 -29 -153 -130 -164 -142 -5 -6 -55 -48 -110
-95 -55 -46 -110 -93 -121 -104 -12 -11 -48 -42 -80 -70 -101 -86 -158 -136
-189 -164 -16 -14 -57 -49 -90 -76 -33 -28 -64 -55 -70 -61 -5 -6 -41 -37 -80
-70 -38 -32 -79 -68 -91 -79 -11 -11 -49 -45 -84 -75 -35 -30 -75 -66 -90 -80
-14 -14 -55 -50 -91 -80 -35 -30 -69 -59 -75 -65 -12 -11 -126 -112 -160 -142
-12 -10 -47 -40 -79 -68 -32 -27 -68 -59 -80 -70 -13 -11 -49 -42 -81 -70 -32
-27 -112 -97 -179 -155 -66 -58 -142 -123 -169 -145 -26 -22 -60 -51 -75 -65
-15 -14 -47 -41 -70 -60 -24 -19 -56 -46 -71 -60 -15 -14 -38 -34 -52 -45 -37
-31 -150 -127 -183 -156 -16 -15 -70 -61 -120 -103 -49 -43 -101 -87 -115
-100 -14 -12 -52 -44 -85 -71 -32 -28 -66 -57 -75 -65 -9 -8 -27 -24 -41 -35
-13 -11 -73 -63 -134 -115 -60 -52 -118 -101 -129 -110 -10 -8 -33 -28 -51
-45 -18 -16 -50 -43 -71 -60 -21 -16 -47 -39 -59 -50 -11 -11 -67 -60 -125
-110 -58 -49 -112 -96 -121 -105 -9 -8 -42 -37 -74 -65 -32 -27 -117 -101
-189 -164 -72 -63 -157 -137 -190 -165 -32 -28 -64 -55 -70 -61 -6 -5 -30 -26
-52 -45 -22 -19 -70 -61 -105 -92 -35 -31 -74 -65 -85 -75 -77 -65 -123 -105
-152 -131 -18 -16 -52 -46 -75 -65 -23 -19 -55 -47 -72 -62 -16 -14 -62 -53
-102 -87 -82 -69 -101 -93 -109 -144 -4 -27 -3 -34 7 -29 7 5 10 4 5 -3 -3 -6
-2 -21 3 -34 15 -37 49 -69 331 -308 29 -25 67 -58 84 -73 17 -15 48 -42 70
-60 21 -18 50 -43 66 -57 26 -24 129 -114 174 -153 43 -37 169 -147 225 -197
65 -57 102 -90 206 -180 61 -52 123 -106 138 -120 60 -55 75 -67 137 -120 35
-30 76 -65 90 -77 14 -12 45 -39 70 -59 199 -161 284 -255 246 -276 -22 -12
-200 -158 -212 -174 -6 -8 -16 -14 -21 -14 -5 0 -19 -10 -30 -22 -11 -13 -56
-52 -99 -88 -43 -35 -88 -72 -99 -82 -82 -73 -112 -99 -209 -181 -11 -10 -37
-33 -56 -50 -19 -18 -69 -61 -110 -97 -41 -36 -84 -74 -96 -85 -12 -11 -50
-45 -84 -75 -35 -30 -75 -66 -89 -79 -14 -13 -55 -48 -90 -79 -34 -31 -73 -66
-85 -77 -24 -21 -137 -121 -194 -170 -19 -16 -54 -49 -78 -71 -24 -23 -61 -54
-82 -70 -20 -16 -42 -33 -48 -39 -6 -5 -37 -30 -67 -55 -31 -25 -56 -50 -57
-56 0 -6 -7 -17 -15 -24 -8 -7 -15 -21 -15 -31 0 -11 -4 -19 -8 -19 -5 0 -9
-7 -9 -15 0 -8 4 -15 9 -15 4 0 7 -3 6 -7 -1 -5 5 -25 14 -45 17 -38 168 -198
187 -198 6 0 11 -4 11 -9 0 -4 21 -25 48 -44 26 -20 52 -40 57 -45 39 -32 154
-130 175 -148 14 -12 48 -41 75 -64 28 -23 61 -52 75 -64 14 -11 50 -41 80
-66 30 -25 64 -54 76 -65 22 -21 46 -41 154 -135 35 -30 74 -64 85 -75 12 -11
61 -54 110 -95 49 -41 96 -82 105 -90 9 -8 42 -37 74 -65 32 -27 71 -61 86
-75 15 -14 42 -36 59 -50 17 -14 49 -41 70 -60 37 -33 110 -96 174 -150 16
-14 42 -37 58 -51 15 -14 44 -40 65 -58 20 -18 42 -47 48 -65 10 -29 12 -177
6 -448 -1 -53 1 -101 4 -107 4 -6 4 -11 -1 -11 -4 0 -9 -145 -10 -323 -1 -177
-2 -384 -3 -459 l-1 -137 38 -34 c21 -19 54 -47 73 -63 19 -16 49 -42 66 -59
18 -16 53 -48 79 -70 27 -22 60 -51 75 -65 15 -14 53 -47 85 -75 32 -27 63
-55 69 -60 6 -6 43 -37 81 -70 39 -33 77 -67 85 -75 8 -8 47 -42 85 -75 39
-33 72 -62 75 -65 7 -7 227 -200 264 -231 16 -13 51 -44 77 -69 26 -25 61 -55
77 -67 15 -12 42 -35 58 -50 16 -15 53 -48 83 -73 29 -25 68 -58 86 -75 17
-16 60 -55 95 -85 35 -30 77 -67 94 -82 17 -15 42 -37 56 -48 14 -12 54 -48
90 -80 36 -32 76 -68 90 -79 14 -11 34 -29 45 -39 11 -10 56 -49 100 -88 44
-38 92 -80 106 -94 15 -14 50 -45 79 -69 29 -25 58 -50 64 -55 6 -6 42 -38 81
-71 38 -33 79 -69 91 -80 11 -11 32 -29 45 -40 54 -46 275 -240 290 -254 9 -9
38 -35 65 -57 27 -23 61 -52 75 -65 32 -29 112 -100 289 -254 74 -65 151 -132
170 -149 19 -17 62 -53 95 -81 33 -27 70 -60 82 -72 12 -13 25 -23 28 -23 3 0
13 -8 23 -18 15 -15 92 -81 156 -135 43 -36 109 -92 120 -102 12 -11 135 -116
176 -151 14 -12 63 -54 110 -94 47 -40 92 -79 100 -86 8 -7 24 -21 35 -31 12
-10 50 -43 85 -73 36 -30 80 -69 99 -86 18 -17 41 -38 50 -45 81 -68 326 -285
384 -341 21 -21 43 -38 47 -38 5 0 13 -6 17 -13 4 -7 44 -44 88 -82 44 -38 85
-74 91 -80 10 -9 49 -43 189 -164 27 -23 68 -59 91 -80 22 -20 62 -54 88 -76
26 -22 60 -51 76 -65 15 -14 56 -50 91 -80 35 -30 86 -75 114 -100 28 -25 80
-70 115 -100 68 -59 75 -65 164 -143 33 -29 83 -72 112 -97 28 -25 78 -68 110
-96 33 -28 77 -67 99 -85 22 -19 47 -41 55 -49 8 -9 42 -38 75 -65 33 -28 62
-53 65 -56 3 -3 28 -26 56 -50 28 -24 79 -69 114 -99 35 -30 72 -63 84 -73 12
-10 45 -39 75 -65 30 -26 65 -56 77 -67 12 -11 46 -40 74 -65 29 -25 58 -50
64 -56 6 -5 45 -39 86 -74 98 -84 93 -79 137 -120 21 -19 65 -58 98 -86 113
-97 240 -207 245 -213 3 -3 23 -21 45 -40 76 -64 159 -136 191 -167 l32 -31
38 31 c95 79 233 196 318 269 11 11 41 35 65 55 24 21 56 48 71 62 16 14 48
42 71 62 24 21 58 49 74 63 17 15 52 45 79 68 27 23 70 61 96 85 26 23 61 52
76 64 16 13 34 28 39 34 6 7 84 76 175 154 177 154 176 153 233 205 20 19 40
35 43 35 3 0 15 10 27 23 12 12 123 110 247 217 124 107 230 199 236 205 20
17 116 101 187 161 37 32 67 62 67 66 0 5 5 6 10 3 6 -3 10 -2 10 2 0 5 33 36
73 68 39 33 86 72 102 87 58 53 189 158 197 158 4 0 8 7 8 15 0 8 5 15 11 15
6 0 23 12 39 27 16 16 48 45 72 65 42 35 62 53 133 116 17 15 59 52 95 82 35
30 71 62 80 70 9 8 47 42 85 75 39 32 77 66 86 75 8 8 34 31 58 50 23 19 61
52 84 73 23 21 59 52 81 70 21 18 50 43 65 57 14 14 42 38 61 54 31 26 126
108 185 161 12 11 35 31 51 45 115 99 229 199 359 315 55 50 105 95 112 100 7
6 26 21 41 35 15 14 54 48 85 75 32 28 68 59 81 70 12 11 49 43 82 70 32 28
90 77 129 110 38 33 95 80 125 105 30 25 66 56 80 69 14 13 45 40 69 60 25 20
55 45 67 56 12 11 35 31 51 45 129 111 170 146 184 160 9 8 44 40 79 70 35 30
73 64 84 75 12 11 80 72 151 134 72 63 137 121 147 130 14 14 61 54 132 114
43 36 130 113 148 129 10 10 20 18 23 18 2 0 17 12 33 28 16 15 53 47 82 72
29 25 58 50 64 55 10 9 70 61 235 203 90 78 156 135 290 252 79 68 99 86 131
112 14 12 43 37 66 57 22 20 53 47 70 61 50 43 178 153 199 172 11 10 29 26
41 36 12 9 50 42 85 74 35 31 77 66 93 79 16 12 38 32 50 43 12 12 49 44 81
71 33 28 73 62 88 78 16 15 30 27 32 27 4 0 80 67 117 102 10 10 20 18 23 18
3 0 19 13 35 30 16 16 32 30 35 30 3 0 24 18 46 40 22 22 44 40 47 40 4 1 25
18 47 40 l39 39 3 283 c2 156 5 461 7 679 2 218 6 401 10 407 3 6 3 13 -2 16
-6 3 -8 61 -2 61 1 0 3 18 5 39 3 22 8 42 13 45 5 3 13 17 17 30 8 26 136 158
199 206 21 17 44 35 50 40 6 6 31 26 56 45 25 19 47 37 50 40 3 4 31 27 62 52
31 26 54 49 51 52 -4 3 -2 6 4 6 5 0 21 9 34 21 13 11 35 30 49 42 14 12 55
47 90 77 36 30 75 65 87 77 12 13 25 23 29 23 4 0 12 6 18 14 6 7 79 71 161
142 83 71 155 133 161 139 13 11 79 68 199 171 44 38 82 71 85 74 3 3 34 28
69 55 36 28 72 57 81 65 9 8 36 31 60 50 105 85 210 185 210 200 0 5 4 10 10
10 13 0 43 59 48 93 8 68 -48 140 -207 265 -19 15 -39 32 -45 37 -6 6 -36 30
-66 55 -30 25 -60 49 -66 55 -6 5 -35 30 -64 55 -29 25 -58 50 -64 55 -6 6
-45 39 -86 75 -41 36 -80 70 -86 75 -10 9 -141 127 -203 183 -14 13 -53 47
-85 75 -33 29 -72 64 -87 78 -29 27 -111 98 -184 159 -24 19 -53 44 -66 55
-13 11 -49 40 -79 65 -74 60 -84 69 -200 170 -88 76 -82 71 -151 136 -30 28
-64 63 -77 77 l-24 25 44 40 c24 22 62 57 83 77 22 20 60 56 85 78 25 23 91
83 145 134 55 50 111 101 125 113 14 11 45 37 69 58 24 20 54 46 67 57 12 11
37 31 54 45 18 14 40 32 49 40 9 9 45 40 81 70 36 30 72 61 81 70 9 8 33 29
54 45 20 17 45 37 54 45 9 9 47 43 86 75 38 33 75 65 81 70 6 6 37 33 69 60
32 28 69 59 81 70 12 12 44 39 69 60 26 22 67 58 90 80 24 22 72 65 107 95
130 113 295 285 300 312 3 15 2 30 -1 34 -3 3 -6 9 -6 14 0 18 -66 108 -101
135 -21 17 -45 37 -53 46 -9 8 -34 29 -56 45 -22 16 -47 36 -55 44 -8 9 -53
47 -100 85 -47 38 -87 72 -90 75 -3 3 -48 41 -100 84 -52 44 -100 85 -106 93
-6 7 -14 13 -17 13 -3 0 -17 10 -30 23 -12 12 -36 33 -53 47 -72 61 -161 137
-189 162 -16 15 -53 46 -80 70 -66 56 -175 150 -189 163 -6 6 -42 37 -81 70
-38 33 -76 67 -85 75 -9 8 -40 35 -69 60 -29 25 -65 56 -80 70 -15 14 -54 48
-86 77 -86 74 -95 82 -166 145 -80 70 -101 89 -168 146 -30 26 -71 63 -92 82
-21 19 -55 49 -76 67 -21 17 -57 49 -80 70 -23 21 -52 47 -65 57 -13 11 -57
49 -98 86 -41 37 -88 78 -104 91 -28 24 -36 31 -112 99 -21 19 -68 60 -104 90
-36 30 -74 64 -86 75 -19 18 -76 67 -144 125 -43 36 -133 114 -150 130 -9 8
-45 40 -81 70 -35 30 -66 57 -69 60 -3 3 -48 41 -100 84 -52 44 -102 87 -111
95 -9 9 -36 32 -59 51 -23 19 -63 54 -89 77 -25 23 -49 43 -53 43 -4 0 -28 20
-53 44 -25 24 -45 42 -45 40 0 -2 -8 4 -18 14 -10 9 -47 42 -82 73 -36 31
-108 93 -160 139 -52 45 -117 101 -143 124 -27 22 -61 52 -76 66 -15 14 -52
45 -81 70 -29 25 -58 50 -64 55 -6 6 -60 53 -121 105 -60 52 -112 97 -115 100
-3 3 -39 34 -80 70 -41 35 -82 71 -91 80 -8 8 -35 31 -59 50 -24 19 -55 46
-70 60 -15 14 -47 42 -71 62 -74 63 -84 71 -149 128 -69 60 -66 58 -130 115
-44 39 -128 111 -180 155 -14 11 -50 43 -80 69 -30 27 -98 85 -150 131 -52 45
-111 96 -130 113 -19 17 -64 56 -100 86 -36 29 -69 59 -75 65 -5 6 -57 51
-115 101 -58 49 -110 94 -116 100 -6 5 -35 30 -64 55 -29 25 -74 63 -98 85
-43 37 -77 68 -112 97 -254 220 -336 292 -338 299 -2 5 -8 9 -12 9 -5 0 -19
10 -32 23 -25 23 -121 107 -238 207 -64 55 -199 172 -224 195 -6 6 -60 53
-121 105 -60 52 -121 105 -135 117 -14 12 -36 31 -50 43 -24 20 -111 98 -195
174 -48 43 -138 88 -159 80 -10 -4 -16 -1 -16 7 0 10 -3 10 -12 1 -7 -7 -19
-12 -28 -12 -8 0 -38 -22 -66 -48 -29 -26 -85 -77 -125 -113 -41 -37 -98 -89
-128 -115 -30 -27 -62 -56 -71 -64 -29 -25 -182 -163 -216 -195 -17 -16 -45
-41 -60 -55 -71 -61 -191 -166 -209 -181 -224 -190 -287 -243 -325 -279 -43
-40 -80 -71 -150 -129 -36 -30 -67 -57 -70 -60 -3 -3 -30 -26 -60 -51 -30 -25
-62 -52 -70 -60 -9 -8 -34 -30 -56 -47 -72 -58 -118 -97 -146 -125 -16 -14
-28 -24 -28 -22 0 4 -51 -40 -86 -74 -8 -7 -20 -10 -26 -6 -11 6 -82 66 -154
129 -7 6 -35 30 -64 55 -29 25 -69 60 -89 79 -20 19 -36 32 -36 30 0 -2 -16
10 -35 28 -36 32 -42 38 -125 108 -26 22 -57 48 -69 58 -11 11 -45 40 -75 65
-30 26 -64 56 -77 67 -12 11 -43 38 -70 60 -26 22 -63 54 -81 70 -18 17 -39
35 -45 40 -20 16 -141 119 -154 131 -6 5 -35 30 -64 55 -29 24 -65 55 -80 69
-15 14 -45 40 -68 58 -23 19 -52 44 -65 55 -32 29 -73 64 -122 105 -110 92
-168 146 -258 239 -90 93 -161 143 -199 143 -7 0 -35 -13 -63 -29z m2057
-1993 c29 -23 58 -47 64 -53 7 -5 20 -17 31 -25 62 -50 147 -121 229 -191 28
-24 64 -55 80 -68 16 -14 63 -54 104 -89 41 -36 99 -85 129 -111 29 -25 61
-53 70 -61 9 -9 45 -40 81 -70 36 -30 67 -57 70 -60 3 -3 39 -34 80 -70 41
-36 77 -67 80 -70 4 -5 140 -122 177 -154 7 -6 28 -24 46 -41 19 -16 60 -52
92 -80 68 -57 129 -111 160 -140 12 -11 46 -41 76 -66 30 -26 70 -61 89 -78
59 -52 132 -116 190 -166 30 -26 73 -63 96 -83 22 -21 67 -59 99 -87 32 -27
73 -64 92 -81 18 -18 52 -47 75 -65 22 -19 53 -45 68 -59 15 -14 38 -34 51
-45 85 -72 175 -149 179 -154 3 -3 34 -31 70 -61 36 -30 70 -59 76 -65 6 -5
35 -30 64 -55 29 -25 58 -50 64 -55 6 -6 76 -67 156 -135 80 -68 150 -129 156
-135 6 -5 35 -30 64 -55 29 -25 62 -53 74 -63 11 -11 45 -40 75 -65 30 -26 62
-54 71 -62 9 -8 63 -55 120 -105 58 -49 110 -94 116 -100 13 -11 17 -15 164
-139 58 -49 110 -94 116 -100 7 -6 31 -27 53 -46 23 -19 64 -56 91 -81 27 -25
72 -66 100 -90 29 -24 60 -51 69 -59 38 -33 165 -146 185 -165 12 -11 52 -47
91 -80 38 -33 79 -69 91 -80 12 -11 30 -27 40 -35 11 -9 53 -45 94 -80 41 -36
88 -76 104 -90 16 -14 37 -32 46 -40 14 -13 46 -41 174 -150 16 -14 37 -32 46
-40 9 -8 45 -40 81 -70 35 -30 66 -57 69 -60 3 -3 34 -30 70 -60 36 -30 70
-59 76 -65 6 -5 35 -30 64 -55 50 -41 119 -100 146 -125 6 -5 37 -32 70 -60
32 -27 79 -68 105 -90 25 -22 72 -63 105 -91 32 -28 77 -66 99 -85 22 -19 45
-38 52 -44 6 -5 34 -30 63 -55 29 -25 62 -54 74 -65 12 -11 49 -42 82 -69 32
-27 64 -54 69 -60 6 -6 60 -53 120 -105 61 -51 139 -120 175 -152 36 -32 83
-73 104 -91 22 -18 51 -44 66 -58 15 -14 53 -47 85 -75 33 -27 68 -59 80 -70
11 -11 52 -47 90 -80 38 -33 77 -67 85 -75 9 -8 59 -53 110 -100 198 -178 344
-321 361 -352 10 -19 7 -23 -66 -83 -26 -22 -53 -45 -59 -50 -6 -6 -58 -51
-116 -100 -58 -50 -107 -93 -110 -96 -5 -6 -45 -41 -150 -129 -29 -25 -65 -56
-80 -70 -14 -14 -37 -34 -51 -45 -40 -31 -139 -117 -176 -152 -19 -18 -38 -33
-43 -33 -5 0 -10 -4 -12 -9 -1 -5 -39 -39 -83 -76 -44 -37 -84 -72 -90 -78 -5
-7 -30 -28 -55 -48 -41 -33 -64 -53 -140 -121 -14 -13 -54 -48 -90 -78 -36
-30 -70 -59 -76 -65 -9 -8 -57 -50 -144 -125 -84 -72 -135 -117 -144 -125 -11
-10 -129 -111 -171 -146 -11 -10 -36 -31 -54 -49 -19 -17 -50 -43 -69 -58 -19
-15 -52 -44 -73 -64 -22 -21 -41 -38 -44 -38 -3 0 -16 -10 -28 -23 -12 -12
-60 -55 -107 -94 -47 -40 -98 -84 -115 -98 -16 -15 -50 -43 -74 -63 -24 -21
-53 -46 -65 -57 -12 -11 -48 -42 -80 -70 -72 -62 -79 -67 -156 -135 -35 -30
-72 -63 -84 -73 -12 -10 -32 -28 -46 -40 -14 -13 -43 -36 -64 -52 -22 -17 -49
-39 -61 -50 -11 -11 -40 -36 -63 -55 -24 -19 -53 -44 -66 -55 -109 -96 -184
-163 -201 -180 -11 -11 -54 -49 -95 -85 -41 -36 -77 -67 -80 -70 -3 -3 -36
-32 -75 -65 -38 -33 -76 -67 -85 -75 -9 -8 -43 -37 -75 -65 -32 -27 -63 -55
-69 -60 -6 -6 -36 -30 -66 -55 -30 -25 -60 -49 -66 -55 -6 -5 -29 -25 -52 -43
-23 -19 -51 -43 -64 -54 -58 -50 -157 -137 -206 -182 -30 -26 -68 -60 -85 -75
-16 -14 -42 -37 -57 -51 -16 -14 -59 -52 -96 -85 -37 -33 -80 -72 -96 -88 -16
-15 -31 -27 -33 -27 -3 0 -22 -16 -42 -36 -21 -20 -54 -48 -73 -62 -19 -15
-49 -40 -66 -57 -18 -16 -42 -39 -55 -49 -34 -28 -140 -118 -159 -136 -9 -8
-40 -35 -70 -60 -30 -25 -61 -52 -70 -60 -8 -8 -31 -28 -50 -44 -40 -33 -151
-129 -192 -166 -15 -14 -49 -43 -75 -65 -26 -22 -55 -48 -65 -57 -10 -10 -20
-18 -23 -18 -3 0 -16 -10 -29 -22 -29 -28 -91 -82 -261 -229 -71 -61 -155
-133 -185 -159 -91 -78 -232 -199 -289 -249 -30 -25 -66 -57 -82 -71 -15 -14
-38 -34 -50 -44 -13 -11 -78 -67 -144 -125 -130 -115 -124 -110 -181 -161 -22
-19 -93 -82 -159 -140 -66 -58 -125 -109 -131 -115 -41 -37 -207 -180 -255
-220 -13 -11 -56 -47 -95 -80 -39 -33 -86 -72 -105 -86 -61 -48 -124 -95 -136
-102 -12 -8 -54 17 -98 57 -11 10 -36 30 -55 45 -19 14 -40 31 -46 36 -6 6
-39 35 -74 65 -35 30 -82 72 -104 92 -23 20 -52 46 -65 58 -25 21 -133 117
-246 220 -33 30 -87 78 -119 105 -32 28 -66 57 -75 65 -9 8 -41 35 -71 60 -75
60 -224 184 -230 190 -3 3 -34 30 -70 60 -36 30 -70 60 -76 65 -6 6 -41 37
-79 70 -38 33 -112 98 -164 144 -53 46 -120 104 -150 130 -29 25 -61 53 -70
61 -9 8 -66 58 -126 110 -61 52 -115 99 -121 105 -6 5 -39 35 -74 65 -86 75
-163 141 -176 154 -7 6 -20 18 -30 26 -35 29 -179 153 -195 169 -9 9 -36 32
-59 51 -23 19 -57 49 -74 65 -18 17 -61 55 -97 85 -35 30 -69 59 -75 65 -15
13 -56 49 -133 115 -36 30 -72 62 -81 70 -17 16 -40 35 -160 140 -41 36 -80
70 -86 76 -6 5 -30 26 -53 45 -24 18 -59 50 -80 69 -20 19 -56 51 -80 70 -23
19 -58 49 -76 65 -18 17 -59 53 -90 80 -32 28 -72 62 -89 77 -17 15 -42 37
-55 48 -14 11 -52 45 -85 74 -61 54 -106 93 -225 196 -35 30 -69 60 -75 65 -6
6 -63 55 -126 110 -124 107 -262 227 -270 235 -3 3 -39 34 -80 70 -41 36 -80
69 -86 75 -6 5 -35 30 -64 55 -74 63 -139 120 -171 152 -16 15 -35 30 -43 35
-8 4 -38 31 -68 58 -30 28 -76 69 -104 92 -27 23 -60 51 -74 63 -113 98 -148
128 -171 150 -15 14 -51 45 -80 70 -28 25 -61 53 -73 63 -12 11 -41 35 -65 55
-24 21 -54 46 -65 57 -12 11 -68 61 -126 110 -58 50 -114 99 -126 110 -12 11
-45 40 -74 65 -29 25 -62 54 -74 65 -12 11 -59 52 -106 92 -47 39 -94 80 -105
90 -11 10 -54 47 -95 83 -41 36 -80 70 -86 75 -6 6 -39 35 -74 65 -35 30 -102
89 -149 130 -48 41 -113 98 -146 125 -32 28 -74 64 -92 80 -18 17 -38 35 -45
40 -20 15 -202 169 -208 175 -3 3 -57 50 -120 105 -142 123 -177 154 -252 230
-54 54 -58 60 -42 72 40 30 212 178 303 262 14 12 59 53 100 90 40 36 95 86
121 111 26 25 81 74 121 110 40 36 84 76 98 89 14 13 55 49 90 80 35 31 69 61
75 66 6 6 38 33 71 60 33 28 65 55 71 60 6 6 33 28 59 50 80 66 95 79 131 113
19 17 37 32 40 32 3 0 15 10 28 23 12 12 44 40 71 62 58 48 139 120 177 157
16 14 28 24 28 22 0 -3 6 1 13 8 8 7 44 40 81 73 38 33 78 69 90 80 49 44 162
145 182 162 18 15 72 63 190 168 13 11 44 39 71 62 26 23 57 50 69 60 12 10
45 38 74 63 29 25 91 78 139 119 47 40 108 92 135 115 27 22 54 46 60 51 6 6
67 58 136 115 69 57 130 109 136 115 6 5 35 30 64 55 72 60 140 119 155 133 7
7 23 21 36 31 24 19 144 122 165 141 6 5 35 30 64 55 84 72 93 80 125 109 33
29 496 435 584 510 29 25 58 51 65 56 11 10 195 168 246 211 51 44 205 178
216 188 6 6 28 25 49 41 22 17 46 37 54 46 9 9 39 35 66 59 28 23 75 64 105
90 30 27 93 81 140 120 47 40 90 78 95 84 6 6 23 21 38 33 15 12 55 45 89 75
58 50 80 69 209 180 29 26 65 56 79 68 14 12 47 41 74 64 57 48 103 89 131
114 11 10 67 59 125 108 57 49 112 96 120 104 9 8 40 35 70 59 29 25 58 50 64
55 6 6 41 35 76 65 36 30 75 64 87 75 11 12 40 37 63 56 24 19 55 46 71 60 27
25 90 79 139 120 14 12 48 41 75 65 28 24 61 54 75 65 14 12 48 41 75 65 28
24 61 53 75 65 14 12 48 41 75 65 28 23 86 74 130 112 44 37 94 80 110 94 17
15 55 48 85 74 30 26 80 69 110 96 30 27 65 56 78 66 12 10 39 33 60 51 20 17
45 35 55 38 9 3 17 10 17 15 0 17 18 9 72 -33z m-7377 -10615 c42 -27 156
-122 239 -198 43 -39 174 -156 197 -176 13 -11 35 -30 49 -42 14 -12 55 -47
90 -77 36 -30 70 -59 76 -65 6 -5 34 -30 63 -55 29 -25 67 -58 84 -73 18 -16
49 -43 70 -60 22 -18 53 -45 70 -60 18 -15 49 -42 71 -60 21 -18 50 -42 64
-55 14 -12 50 -44 80 -70 30 -26 60 -51 66 -57 6 -5 38 -32 71 -59 33 -27 65
-54 70 -60 6 -6 37 -33 70 -59 33 -27 64 -55 68 -63 4 -8 12 -14 17 -14 4 0
24 -15 43 -32 18 -18 67 -62 107 -98 41 -36 84 -74 96 -85 12 -11 35 -31 50
-44 16 -13 52 -44 79 -69 107 -96 156 -139 279 -246 32 -28 71 -62 85 -76 15
-14 42 -38 61 -54 38 -31 77 -64 275 -236 72 -62 141 -122 155 -134 14 -12 75
-64 136 -116 61 -52 137 -117 169 -145 33 -27 80 -68 105 -90 26 -22 69 -59
96 -82 27 -23 60 -51 74 -63 14 -12 47 -40 74 -63 27 -23 63 -54 80 -70 17
-15 44 -37 60 -50 29 -22 48 -39 107 -92 19 -16 65 -57 104 -90 38 -33 79 -69
91 -80 11 -11 34 -31 50 -44 37 -31 163 -141 184 -161 9 -8 45 -40 80 -70 35
-30 74 -64 86 -75 53 -47 146 -128 234 -205 52 -46 113 -99 135 -119 22 -20
72 -63 110 -96 39 -33 75 -65 81 -70 6 -6 30 -27 54 -46 23 -18 56 -47 74 -64
18 -16 55 -48 82 -70 26 -22 56 -47 64 -55 14 -13 106 -90 135 -113 6 -4 24
-19 40 -32 17 -14 56 -39 88 -55 l59 -29 36 18 c21 11 72 55 115 99 79 82 134
132 287 262 47 39 96 81 110 93 14 12 61 53 105 90 171 147 189 162 199 172 6
6 38 33 71 61 33 27 71 59 85 71 40 34 71 62 124 106 27 23 54 47 60 52 6 6
38 33 71 60 33 28 72 61 87 75 14 14 45 41 69 60 51 42 56 47 97 85 l33 29 -1
-1756 c-1 -966 -4 -1758 -7 -1762 -5 -5 -93 60 -141 104 -11 11 -24 20 -28 20
-4 0 -12 6 -18 13 -6 8 -69 63 -141 123 -71 60 -132 111 -135 114 -3 3 -32 28
-65 55 -33 28 -64 55 -70 61 -5 6 -39 35 -75 65 -35 30 -73 63 -85 74 -11 11
-49 45 -85 75 -36 30 -70 59 -76 65 -6 5 -24 21 -40 35 -92 79 -180 156 -184
160 -3 3 -59 53 -125 110 -66 58 -133 117 -150 131 -16 14 -55 48 -85 75 -31
27 -82 72 -114 99 -32 28 -68 59 -80 70 -11 11 -48 43 -81 70 -32 28 -66 57
-75 65 -9 8 -42 38 -74 65 -33 28 -74 64 -93 81 -18 18 -52 47 -75 65 -23 19
-51 43 -62 54 -12 11 -68 61 -126 110 -57 50 -112 97 -120 105 -15 14 -84 73
-150 130 -14 12 -52 45 -84 73 -33 29 -67 59 -76 67 -10 8 -44 38 -76 65 -32
28 -68 59 -80 70 -12 11 -48 43 -80 70 -32 28 -68 59 -80 70 -12 11 -48 43
-80 70 -32 28 -69 60 -82 73 -14 12 -48 41 -75 65 -28 23 -91 78 -141 121 -50
43 -117 102 -150 130 -32 28 -66 58 -75 67 -9 8 -43 37 -76 65 -33 27 -62 51
-65 54 -3 3 -53 45 -112 94 -60 49 -108 93 -108 98 0 5 -4 7 -9 3 -6 -3 -13 0
-18 7 -4 7 -39 40 -78 73 -38 33 -77 67 -86 75 -17 16 -124 110 -193 170 -43
37 -100 88 -146 130 -15 14 -60 54 -100 90 -40 36 -78 70 -84 75 -6 6 -52 46
-101 90 -49 44 -96 87 -105 95 -15 13 -100 88 -156 137 -12 10 -42 37 -67 59
-26 23 -65 57 -88 75 -23 19 -51 44 -63 55 -16 17 -151 131 -234 198 -7 6 -28
25 -47 41 -18 17 -55 48 -81 70 -26 22 -54 47 -63 56 -9 8 -45 40 -80 70 -35
30 -74 63 -85 74 -19 18 -105 94 -176 155 -14 12 -39 34 -55 48 -17 15 -84 74
-150 131 -66 58 -124 110 -130 115 -5 6 -39 36 -75 66 -36 30 -66 58 -68 62
-2 4 -79 72 -170 150 -260 221 -292 261 -296 359 0 22 -3 39 -6 39 -3 0 -5 47
-5 105 0 58 4 105 8 105 4 0 3 9 -3 20 -6 11 -7 20 -3 20 4 0 9 53 10 118 0
64 2 147 2 185 1 37 4 67 9 67 4 0 25 -12 47 -27z m14664 -150 c1 -93 3 -234
5 -314 4 -270 -4 -286 -274 -519 -35 -30 -71 -62 -80 -70 -9 -8 -45 -40 -80
-70 -36 -30 -67 -57 -70 -60 -3 -3 -36 -32 -75 -65 -38 -33 -72 -62 -75 -65
-3 -3 -52 -46 -110 -95 -58 -50 -110 -94 -116 -100 -63 -57 -100 -89 -159
-140 -39 -32 -77 -66 -86 -75 -9 -8 -38 -33 -64 -55 -27 -22 -59 -49 -71 -60
-12 -11 -45 -40 -74 -65 -29 -25 -62 -54 -74 -65 -13 -11 -49 -42 -81 -70 -31
-27 -68 -60 -81 -72 -13 -13 -25 -23 -28 -23 -3 0 -21 -15 -40 -32 -18 -18
-57 -53 -86 -78 -81 -69 -92 -79 -132 -116 -20 -19 -40 -34 -43 -34 -3 0 -13
-8 -23 -17 -10 -10 -44 -40 -76 -68 -31 -27 -99 -90 -151 -140 -105 -101 -143
-135 -296 -262 -59 -49 -113 -95 -121 -103 -54 -53 -336 -305 -473 -421 -22
-19 -51 -44 -65 -56 -47 -40 -67 -58 -116 -98 -26 -22 -63 -55 -82 -72 -19
-18 -38 -33 -41 -33 -3 0 -25 -17 -47 -38 -23 -20 -56 -48 -73 -62 -17 -14
-46 -38 -64 -55 -18 -16 -48 -42 -67 -56 -19 -15 -49 -40 -67 -55 -17 -16 -40
-36 -50 -44 -25 -20 -135 -112 -149 -125 -7 -5 -26 -21 -44 -35 -17 -14 -44
-36 -59 -50 -15 -14 -46 -41 -70 -60 -23 -19 -55 -46 -71 -60 -15 -14 -49 -43
-75 -65 -27 -22 -63 -53 -81 -70 -17 -16 -51 -46 -74 -65 -24 -19 -53 -44 -64
-55 -12 -11 -42 -38 -67 -60 -74 -66 -227 -207 -284 -260 -72 -69 -119 -111
-195 -175 -36 -30 -70 -59 -76 -65 -6 -5 -35 -30 -64 -55 -30 -25 -61 -52 -70
-60 -9 -8 -54 -47 -100 -87 -47 -40 -98 -83 -113 -97 -16 -13 -46 -39 -67 -56
-22 -18 -50 -42 -63 -53 -33 -30 -125 -109 -167 -143 -19 -16 -39 -34 -45 -40
-5 -5 -39 -34 -75 -64 -36 -29 -72 -60 -80 -69 -8 -9 -35 -32 -60 -52 -25 -21
-59 -50 -77 -65 -50 -45 -120 -105 -213 -183 -47 -40 -110 -94 -140 -121 -30
-27 -68 -59 -84 -71 -16 -12 -38 -32 -50 -43 -12 -12 -46 -41 -75 -65 -30 -25
-59 -50 -65 -55 -73 -69 -359 -306 -363 -302 -21 21 -21 3472 0 3493 6 5 96
-58 137 -97 9 -8 28 -24 41 -35 92 -75 136 -112 149 -125 22 -20 65 -58 190
-165 58 -49 107 -92 110 -96 3 -3 46 -41 95 -84 50 -43 97 -86 106 -94 8 -9
44 -41 79 -71 34 -30 70 -62 79 -71 9 -8 45 -39 80 -68 35 -29 70 -58 77 -64
6 -7 38 -34 70 -62 32 -27 106 -98 164 -157 114 -115 140 -129 199 -108 31 11
84 43 101 60 3 3 31 25 62 48 31 24 58 47 60 50 2 4 35 33 73 64 39 31 79 65
90 75 11 10 56 49 100 87 72 62 180 155 209 181 6 6 63 55 126 109 63 55 122
107 131 115 9 9 45 41 80 71 34 30 74 65 89 78 49 44 66 59 185 162 66 58 122
107 125 110 3 3 39 34 80 70 41 36 80 70 86 76 6 5 35 30 64 55 29 24 62 52
74 62 11 11 45 40 75 65 30 26 66 57 80 69 14 13 37 32 51 44 71 60 126 106
146 124 31 28 60 52 129 109 33 27 70 58 81 70 12 12 32 30 45 40 46 37 224
189 234 200 6 6 30 28 55 48 25 20 59 49 75 63 17 15 52 45 79 68 28 23 61 52
74 65 14 12 48 41 76 65 27 23 57 49 66 57 8 8 31 28 50 44 19 16 67 57 105
91 39 34 115 102 170 150 55 48 128 113 163 144 35 31 73 65 86 76 12 11 58
52 102 91 43 39 97 87 119 105 22 19 45 39 50 45 6 6 57 51 115 99 121 101
110 91 300 255 80 69 152 131 160 138 8 7 27 22 41 35 14 12 47 40 73 62 26
22 59 51 74 65 16 14 47 41 71 60 23 19 60 51 81 70 21 19 49 44 62 55 129
109 156 133 174 150 11 11 46 43 78 70 31 28 77 68 101 90 68 61 75 67 144
118 36 26 70 47 76 47 8 0 12 -55 14 -167z"/>
<path d="M10415 17669 c-22 -4 -43 -5 -47 -2 -5 2 -8 -1 -8 -6 0 -6 -3 -10 -7
-10 -5 1 -10 0 -13 -1 -3 -1 -12 -3 -21 -5 -46 -9 -239 -115 -247 -137 -2 -4
-8 -8 -14 -8 -5 0 -15 -6 -22 -12 -7 -7 -32 -29 -56 -48 -58 -48 -76 -64 -229
-209 -74 -69 -152 -142 -172 -161 -21 -19 -52 -46 -70 -60 -17 -14 -41 -35
-52 -47 -11 -13 -26 -23 -33 -23 -7 0 -14 -3 -16 -8 -1 -4 -37 -36 -78 -72
-41 -35 -80 -69 -86 -74 -6 -6 -37 -33 -68 -61 -32 -27 -75 -66 -95 -85 -21
-19 -82 -75 -136 -125 -53 -49 -102 -95 -109 -100 -6 -6 -67 -62 -136 -125
-69 -62 -127 -116 -130 -119 -5 -6 -81 -71 -194 -166 -26 -21 -58 -48 -70 -60
-44 -40 -162 -143 -196 -171 -19 -16 -46 -40 -60 -54 -59 -56 -122 -109 -200
-168 -56 -43 -136 -126 -162 -168 -26 -40 -49 -100 -55 -144 -5 -32 -5 -150 0
-170 29 -116 67 -167 232 -318 29 -26 63 -56 77 -67 14 -11 57 -48 94 -81 38
-34 114 -101 169 -150 55 -48 114 -100 130 -115 17 -15 50 -46 75 -67 25 -22
59 -52 75 -67 17 -15 59 -52 94 -83 35 -32 74 -66 86 -77 13 -11 53 -47 91
-80 37 -33 78 -69 90 -80 12 -11 55 -49 95 -85 207 -184 265 -236 275 -245 17
-16 155 -138 178 -158 35 -30 137 -120 166 -147 15 -14 55 -50 89 -80 35 -30
73 -64 85 -75 12 -11 53 -47 90 -80 37 -33 80 -71 95 -85 16 -14 59 -52 96
-85 38 -33 78 -69 91 -80 12 -11 55 -49 94 -85 40 -36 82 -73 94 -83 12 -10
55 -49 96 -87 41 -38 84 -77 96 -87 35 -30 155 -136 183 -162 14 -13 43 -37
64 -55 21 -17 49 -40 61 -51 12 -11 49 -42 81 -70 33 -27 77 -66 100 -85 23
-19 66 -55 95 -80 30 -25 66 -56 81 -70 15 -14 36 -32 46 -40 39 -32 198 -166
213 -180 9 -8 41 -35 70 -60 30 -25 71 -61 92 -80 20 -19 46 -42 57 -50 10 -8
52 -45 92 -82 41 -37 83 -75 95 -85 12 -10 50 -44 85 -75 35 -31 74 -65 87
-76 12 -11 54 -48 92 -82 74 -66 79 -70 160 -140 29 -25 65 -56 80 -70 16 -14
56 -50 91 -80 34 -30 67 -59 73 -65 6 -5 47 -41 91 -80 44 -38 85 -74 91 -80
6 -5 37 -32 68 -60 32 -27 68 -59 81 -70 12 -11 37 -33 56 -50 63 -55 194
-170 205 -180 6 -5 42 -37 80 -70 38 -33 78 -69 89 -80 12 -11 37 -33 56 -49
18 -15 60 -51 92 -80 74 -66 168 -123 236 -143 113 -33 327 -11 408 42 13 9
23 12 23 8 0 -5 4 -3 8 3 4 5 17 17 30 26 12 8 39 30 60 49 20 19 64 57 97 84
33 28 61 53 63 58 2 4 8 7 13 7 5 0 17 8 27 18 10 9 47 42 82 72 62 53 224
195 246 215 48 43 144 127 164 145 22 19 129 115 199 179 14 13 59 53 100 90
41 36 89 80 107 96 17 17 64 59 104 95 40 36 85 76 100 90 31 28 153 138 209
188 20 18 45 40 56 50 11 10 58 51 105 92 47 40 95 82 106 94 12 11 41 37 64
56 71 59 83 70 131 113 25 23 74 67 109 97 35 30 74 64 86 75 13 11 46 40 75
65 121 104 199 199 215 260 20 78 23 106 20 162 -5 86 -46 173 -130 278 -36
43 -249 253 -301 295 -28 22 -62 52 -77 67 -16 14 -28 23 -28 20 0 -4 -4 -2
-8 3 -4 6 -54 49 -112 95 -58 47 -116 94 -130 106 -14 12 -47 41 -75 64 -27
24 -81 70 -119 104 -38 33 -76 68 -86 76 -32 28 -183 165 -221 200 -20 19 -53
49 -72 65 -19 17 -59 53 -89 80 -107 98 -195 175 -333 290 -227 190 -240 202
-376 329 -113 106 -159 146 -168 146 -4 0 -21 15 -38 33 -34 37 -119 116 -217
201 -37 33 -80 71 -95 85 -16 14 -56 51 -90 81 -34 30 -72 64 -85 75 -32 29
-146 129 -176 155 -42 36 -141 124 -170 150 -26 24 -93 83 -210 185 -30 27
-57 51 -60 54 -3 3 -36 33 -75 66 -38 33 -86 74 -105 91 -19 17 -62 55 -95 85
-33 29 -65 58 -71 63 -6 6 -31 27 -55 47 -24 21 -58 50 -74 65 -17 16 -59 54
-94 84 -35 30 -75 66 -90 80 -27 26 -139 123 -180 156 -13 10 -33 28 -45 39
-12 11 -51 45 -86 75 -93 79 -120 102 -147 127 -13 11 -42 35 -63 53 -21 18
-50 42 -63 53 -12 12 -45 40 -71 62 -27 22 -55 45 -61 52 -12 12 -162 142
-199 172 -10 9 -33 30 -51 46 -18 17 -56 50 -85 75 -51 44 -124 108 -180 160
-71 65 -246 229 -279 260 -20 19 -59 53 -86 75 -28 22 -52 43 -55 46 -27 30
-154 95 -233 119 -46 14 -158 19 -212 9z m3117 -3206 c2 -5 37 -37 78 -73 41
-36 80 -69 86 -75 6 -5 41 -37 79 -70 38 -33 79 -69 91 -80 12 -11 48 -42 80
-70 32 -27 65 -57 74 -65 14 -14 129 -114 190 -167 51 -44 68 -59 135 -118 37
-33 80 -71 95 -85 15 -14 54 -47 85 -75 77 -66 135 -117 155 -135 25 -23 152
-134 178 -156 13 -10 40 -35 61 -54 21 -19 66 -60 101 -90 35 -30 75 -65 89
-78 13 -12 46 -40 72 -63 26 -22 63 -54 82 -72 20 -18 56 -50 82 -72 26 -22
57 -49 69 -60 13 -11 56 -49 97 -85 41 -36 86 -77 101 -92 16 -14 28 -24 28
-21 0 3 9 -5 21 -18 11 -13 31 -36 45 -51 13 -15 24 -32 24 -38 0 -5 5 -10 10
-10 6 0 10 -7 10 -15 0 -8 3 -15 8 -15 10 0 41 -73 57 -132 12 -44 13 -143 3
-178 -9 -27 -20 -54 -36 -90 -17 -36 -172 -195 -301 -310 -41 -36 -81 -72 -90
-80 -9 -9 -47 -43 -86 -75 -38 -33 -76 -67 -85 -75 -9 -8 -40 -35 -70 -60 -29
-25 -67 -58 -84 -73 -17 -16 -53 -48 -80 -70 -26 -23 -53 -46 -60 -52 -38 -34
-156 -136 -180 -156 -15 -13 -38 -33 -50 -44 -13 -11 -51 -45 -86 -75 -35 -30
-75 -65 -87 -77 -13 -11 -42 -36 -63 -53 -22 -18 -55 -46 -73 -64 -236 -218
-276 -250 -380 -301 -37 -19 -70 -34 -72 -34 -17 -2 -64 -14 -82 -21 -14 -6
-23 -6 -23 0 0 5 -12 5 -29 0 -16 -4 -31 -6 -34 -4 -2 3 -22 7 -43 9 -40 5
-79 12 -79 15 0 1 -7 3 -16 5 -35 6 -147 66 -200 107 -31 24 -87 70 -124 103
-38 33 -112 98 -164 145 -53 47 -127 112 -165 145 -37 33 -81 71 -96 85 -23
21 -79 70 -174 153 -12 10 -34 31 -51 45 -16 15 -68 61 -115 101 -47 41 -87
77 -90 80 -3 3 -39 35 -80 71 -69 60 -106 93 -165 145 -31 28 -147 131 -172
152 -11 10 -47 41 -79 70 -32 28 -68 60 -80 70 -40 35 -146 128 -168 148 -20
18 -122 108 -172 152 -84 72 -154 135 -198 175 -28 26 -54 48 -58 48 -5 0 -8
9 -8 19 0 26 137 164 335 336 44 39 85 75 91 81 6 5 31 26 54 45 23 18 50 41
59 50 9 8 43 37 76 65 33 27 62 51 65 54 3 3 48 41 100 85 52 44 100 85 106
90 6 6 40 35 75 65 65 56 115 101 198 180 46 44 178 164 289 265 31 28 66 59
78 70 12 11 50 45 85 75 35 30 75 67 91 81 15 14 53 47 84 75 32 27 62 54 68
59 13 12 195 166 252 212 120 99 147 115 156 96z"/>
<path d="M13522 14018 c-55 -50 -49 -45 -143 -128 -68 -60 -179 -160 -205
-185 -6 -5 -42 -37 -80 -70 -73 -64 -108 -95 -193 -172 -30 -26 -62 -55 -71
-63 -9 -8 -46 -41 -81 -72 -35 -31 -73 -65 -85 -75 -11 -10 -58 -52 -104 -93
-46 -41 -88 -79 -94 -85 -6 -5 -49 -44 -96 -85 -89 -78 -126 -111 -189 -170
-49 -46 -104 -94 -170 -150 -84 -71 -155 -143 -209 -211 l-50 -63 68 -51 c67
-49 140 -110 230 -191 25 -22 56 -50 70 -62 13 -12 27 -21 31 -20 7 3 126 109
169 151 16 15 33 27 39 27 6 0 11 3 11 8 0 4 28 30 61 57 34 28 67 55 73 61 7
6 39 33 71 59 33 27 69 57 80 66 11 10 42 38 69 61 28 24 64 57 81 73 18 17
67 62 111 100 43 39 84 75 89 81 6 6 37 33 70 60 33 27 65 54 70 60 6 6 39 35
75 65 36 30 67 57 70 60 3 3 30 27 60 54 201 174 490 455 556 540 21 28 42 52
45 55 14 12 18 40 6 40 -7 0 -22 8 -33 18 -10 10 -35 29 -54 42 -39 27 -53 39
-192 163 -53 48 -99 87 -103 87 -3 0 -27 -19 -53 -42z"/>
<path d="M14223 13409 c-78 -73 -74 -69 -133 -120 -29 -24 -67 -57 -85 -74
-98 -90 -240 -223 -259 -241 -11 -12 -79 -70 -151 -130 -71 -60 -161 -139
-200 -175 -38 -37 -90 -85 -114 -106 -24 -21 -53 -46 -65 -56 -12 -10 -34 -28
-49 -40 -59 -46 -189 -162 -271 -242 -17 -17 -65 -60 -108 -97 -170 -147 -208
-184 -276 -268 l-52 -65 25 -20 c13 -11 46 -36 72 -55 27 -19 50 -37 53 -40 3
-3 39 -34 80 -70 41 -35 93 -82 115 -102 22 -21 45 -38 50 -38 6 0 32 20 58
44 26 24 68 61 94 82 26 21 59 50 73 64 14 14 52 48 85 75 32 28 66 57 75 65
23 21 74 65 150 130 35 30 78 69 96 85 17 17 53 49 80 71 55 47 85 73 129 112
17 15 62 54 100 87 39 33 72 62 75 65 3 3 34 30 70 60 36 30 67 57 70 61 3 3
46 41 95 84 50 44 108 95 130 115 42 38 333 329 378 378 15 17 27 34 27 37 0
4 7 13 15 21 23 23 18 38 -17 59 -18 10 -66 46 -107 79 -72 59 -87 72 -161
140 -19 17 -47 42 -62 55 l-27 23 -58 -53z"/>
<path d="M14940 12788 c-25 -24 -79 -72 -120 -108 -75 -66 -176 -155 -196
-174 -6 -6 -52 -49 -101 -96 -49 -47 -111 -103 -137 -125 -26 -22 -57 -49 -69
-61 -24 -22 -224 -196 -271 -235 -16 -13 -43 -37 -60 -52 -16 -15 -45 -40 -64
-55 -19 -15 -49 -40 -67 -57 -17 -16 -52 -46 -76 -66 -24 -21 -60 -52 -80 -70
-20 -19 -72 -65 -115 -104 -178 -159 -299 -280 -373 -370 -41 -50 -49 -65 -32
-65 7 0 138 -94 151 -109 3 -3 39 -35 80 -71 41 -36 90 -80 110 -97 40 -38 50
-40 71 -15 9 9 29 28 45 42 73 62 180 156 195 170 8 8 37 33 64 55 26 22 55
47 64 56 9 9 54 49 101 89 47 40 87 76 90 79 3 3 34 31 70 61 36 30 67 58 70
61 3 3 41 37 85 75 79 68 127 110 171 149 12 11 37 32 56 47 19 15 48 40 64
55 16 15 56 51 88 78 33 28 77 67 98 88 21 20 40 37 42 37 5 0 175 161 274
260 79 80 122 128 202 227 15 19 12 31 -10 38 -11 3 -20 11 -20 16 0 5 -5 9
-11 9 -9 0 -58 37 -126 95 -6 5 -35 30 -64 55 -29 25 -73 64 -97 88 -24 23
-47 42 -51 42 -3 0 -27 -19 -51 -42z"/>
<path d="M6970 14657 c-195 -48 -266 -87 -406 -222 -11 -11 -34 -31 -51 -45
-17 -14 -64 -56 -106 -93 -41 -37 -86 -77 -98 -88 -52 -43 -135 -117 -194
-174 -35 -33 -89 -82 -120 -110 -31 -27 -69 -61 -85 -75 -15 -14 -45 -40 -66
-59 -44 -38 -172 -151 -188 -166 -6 -6 -69 -61 -141 -124 -71 -63 -139 -123
-150 -133 -11 -10 -32 -29 -46 -41 -66 -57 -161 -142 -187 -166 -15 -14 -57
-51 -92 -81 -34 -30 -78 -68 -96 -85 -18 -16 -61 -52 -95 -80 -35 -27 -72 -59
-84 -70 -11 -11 -47 -42 -80 -70 -32 -27 -63 -54 -69 -60 -6 -5 -51 -44 -101
-85 -267 -222 -346 -368 -311 -575 19 -111 83 -188 366 -435 9 -8 50 -44 90
-80 40 -36 82 -73 94 -83 26 -23 129 -114 166 -147 15 -14 56 -50 90 -80 35
-30 70 -62 79 -71 9 -8 39 -33 66 -55 28 -21 52 -41 55 -44 10 -10 106 -96
179 -160 41 -36 84 -74 96 -85 11 -11 54 -49 95 -84 41 -36 82 -72 91 -80 32
-32 146 -131 209 -183 70 -57 114 -94 140 -118 9 -8 54 -49 100 -90 46 -41 93
-84 105 -95 32 -30 215 -197 259 -236 21 -19 55 -50 76 -69 49 -45 64 -57 142
-118 35 -28 113 -99 173 -159 98 -96 174 -165 268 -243 16 -14 43 -37 60 -53
16 -15 52 -46 79 -70 80 -67 71 -59 307 -268 47 -41 97 -84 110 -95 13 -10 28
-24 35 -30 11 -10 132 -116 265 -233 36 -31 75 -65 87 -76 12 -11 35 -31 50
-44 29 -25 159 -137 180 -156 15 -14 123 -109 152 -133 13 -11 41 -35 62 -52
22 -18 50 -42 63 -53 53 -49 127 -115 187 -167 35 -30 73 -64 86 -75 12 -11
50 -45 84 -75 35 -30 68 -59 74 -65 6 -5 47 -41 91 -80 44 -38 87 -76 96 -85
9 -8 43 -37 74 -65 32 -27 68 -59 81 -70 12 -11 48 -42 80 -70 32 -27 79 -68
104 -91 25 -23 55 -50 68 -60 13 -10 36 -30 51 -44 15 -14 60 -54 101 -90 40
-36 78 -70 84 -75 6 -6 38 -33 71 -60 33 -28 69 -60 80 -72 18 -20 155 -97
155 -88 0 3 12 0 28 -6 52 -20 218 -33 228 -17 3 4 9 6 14 3 7 -5 37 1 110 19
57 15 111 51 214 139 11 11 41 35 65 55 40 33 75 64 147 127 12 12 44 39 70
60 26 22 60 52 76 67 16 16 31 28 33 28 3 0 25 19 49 43 24 23 57 53 73 66 15
13 48 43 73 65 47 42 172 153 212 188 13 11 56 50 97 86 40 37 87 76 102 87
16 11 29 26 29 33 0 6 5 12 10 12 5 0 18 8 28 17 10 10 49 45 86 78 37 33 78
69 90 80 12 11 53 47 90 80 80 71 107 95 161 144 22 20 74 65 115 101 41 36
81 72 90 80 9 8 47 43 85 76 39 34 82 73 96 85 14 13 59 53 99 89 40 36 78 70
84 75 6 6 58 50 116 100 138 117 215 198 237 246 9 21 20 39 25 39 4 0 7 3 6
8 -1 4 2 27 6 52 4 25 9 54 10 65 3 22 -20 130 -31 149 -4 6 -8 16 -9 21 -7
42 -140 200 -245 290 -57 49 -236 207 -289 255 -16 14 -42 37 -59 52 -61 52
-174 153 -216 193 -64 61 -136 126 -188 169 -26 22 -65 56 -86 75 -20 20 -57
52 -82 72 -24 21 -55 48 -69 60 -15 13 -54 49 -89 79 -58 50 -119 104 -177
155 -13 11 -49 43 -81 70 -31 28 -69 61 -84 75 -15 14 -45 39 -66 56 -21 18
-54 47 -75 65 -20 19 -62 57 -94 84 -32 28 -70 61 -85 75 -15 14 -46 41 -69
60 -23 19 -58 50 -78 68 -20 18 -77 68 -127 110 -106 89 -109 92 -156 134
-121 110 -200 182 -240 220 -25 23 -92 86 -149 138 -56 52 -123 115 -149 138
-25 24 -72 67 -105 95 -32 29 -71 63 -86 77 -16 14 -36 32 -47 40 -63 51 -131
108 -149 125 -11 11 -47 43 -80 70 -32 28 -101 88 -154 134 -52 46 -121 107
-154 135 -32 28 -71 62 -86 76 -15 14 -51 45 -80 70 -28 25 -62 54 -74 65 -45
40 -161 141 -201 175 -22 19 -42 37 -45 40 -5 5 -143 125 -189 165 -13 11 -41
36 -62 55 -21 19 -56 50 -78 68 -22 18 -53 45 -69 60 -16 15 -53 47 -82 72
-29 25 -65 56 -80 70 -24 22 -71 63 -150 130 -14 12 -54 48 -90 80 -36 31
-108 95 -160 140 -52 45 -124 108 -160 140 -62 55 -105 92 -179 156 -18 16
-46 40 -61 54 -15 14 -54 48 -86 75 -31 28 -71 63 -88 78 -58 54 -114 86 -191
112 -83 28 -202 38 -265 22z m3154 -3229 c12 -13 51 -48 86 -78 35 -30 68 -59
74 -65 6 -5 52 -45 101 -88 50 -43 106 -93 125 -110 19 -18 69 -61 110 -97 41
-36 91 -79 110 -97 39 -35 53 -47 130 -113 28 -25 65 -56 80 -70 15 -14 56
-50 90 -80 35 -30 73 -63 84 -73 19 -17 80 -71 201 -178 22 -20 53 -47 69 -60
16 -13 44 -38 62 -55 18 -17 48 -44 66 -59 18 -15 64 -55 102 -89 38 -33 78
-69 90 -79 26 -22 125 -110 158 -140 14 -12 47 -40 74 -62 142 -116 185 -154
249 -219 103 -104 132 -142 173 -224 32 -65 36 -84 38 -155 1 -45 -1 -86 -4
-92 -4 -5 -7 -12 -7 -15 0 -20 -45 -102 -74 -140 -40 -49 -51 -60 -177 -175
-48 -44 -95 -87 -104 -95 -9 -8 -47 -42 -85 -75 -39 -33 -75 -64 -81 -70 -6
-5 -37 -32 -69 -60 -227 -194 -300 -259 -303 -267 -2 -4 -7 -8 -12 -8 -5 0
-24 -15 -43 -32 -18 -18 -56 -52 -83 -75 -27 -23 -60 -52 -74 -63 -14 -12 -47
-41 -73 -64 -27 -22 -83 -74 -123 -114 -41 -40 -112 -103 -157 -140 -45 -37
-96 -80 -113 -97 -41 -40 -82 -74 -124 -106 -45 -33 -140 -90 -140 -84 0 2
-17 -3 -37 -12 -48 -20 -93 -27 -163 -26 -162 1 -308 84 -576 328 -142 130
-184 166 -289 250 -50 40 -96 79 -146 125 -16 14 -47 41 -69 60 -23 19 -61 53
-84 75 -24 22 -61 56 -82 75 -35 31 -80 72 -219 199 -22 20 -74 66 -115 101
-41 36 -82 72 -90 80 -8 8 -49 44 -90 79 -41 36 -79 69 -85 75 -5 6 -37 34
-69 61 -33 28 -74 64 -92 80 -17 17 -44 41 -60 54 -16 14 -61 52 -100 85 -38
34 -92 79 -119 101 -60 50 -77 65 -164 144 l-71 64 25 33 c32 41 117 126 225
224 46 41 88 80 94 85 6 6 61 53 121 105 61 52 115 99 121 105 20 17 114 99
239 205 118 101 208 178 248 212 11 10 50 45 86 77 36 33 91 82 121 108 30 26
71 64 90 83 28 28 174 154 247 215 7 5 25 21 41 35 15 14 47 41 70 60 24 19
56 46 71 60 15 14 46 41 70 60 24 19 55 46 70 60 15 14 47 41 72 61 24 20 62
53 84 72 111 97 150 127 162 127 8 0 24 -10 37 -22z"/>
<path d="M10118 11026 c-16 -13 -58 -50 -95 -83 -38 -33 -86 -75 -107 -94 -22
-19 -52 -45 -66 -59 -146 -138 -269 -250 -334 -305 -26 -22 -58 -49 -71 -60
-13 -11 -47 -40 -76 -65 -29 -25 -87 -77 -129 -116 -112 -106 -134 -125 -189
-169 -28 -22 -51 -43 -51 -47 0 -5 -6 -8 -14 -8 -8 0 -16 -4 -18 -9 -1 -5 -23
-26 -48 -46 -25 -20 -86 -76 -136 -124 -50 -47 -122 -112 -160 -145 -149 -126
-294 -280 -294 -312 0 -5 10 -16 22 -24 39 -27 172 -134 212 -170 22 -19 62
-56 90 -82 28 -26 56 -48 61 -48 6 0 37 25 70 56 33 31 80 73 104 93 25 20 56
47 70 60 14 13 43 37 64 55 22 17 49 39 60 50 12 10 53 44 92 75 38 31 81 67
96 81 14 14 39 36 55 50 16 14 76 69 134 121 58 52 120 108 139 124 18 17 48
44 66 60 18 17 52 48 77 70 24 22 88 81 142 130 55 50 109 99 121 110 44 39
208 191 247 228 22 20 41 37 43 37 4 0 82 69 129 115 23 22 54 61 71 85 16 25
33 50 37 56 5 7 -14 26 -49 50 -31 21 -66 48 -78 60 -11 11 -28 25 -37 30 -17
9 -140 118 -189 167 -15 15 -29 27 -31 27 -2 0 -15 -11 -30 -24z"/>
<path d="M10829 10429 c-20 -17 -105 -93 -195 -174 -46 -42 -168 -151 -188
-168 -18 -16 -67 -60 -181 -162 -12 -11 -55 -49 -95 -85 -70 -63 -155 -139
-209 -189 -70 -63 -193 -173 -272 -241 -29 -25 -65 -56 -81 -70 -15 -14 -34
-29 -41 -35 -160 -128 -448 -404 -505 -483 l-31 -43 97 -74 c53 -40 118 -93
144 -117 80 -74 146 -130 153 -130 4 0 34 24 68 54 33 29 76 67 95 83 19 17
45 39 57 50 13 11 49 43 81 72 33 28 73 63 89 78 17 14 50 43 74 63 25 20 54
46 66 57 18 17 79 71 161 142 12 10 50 44 85 75 72 63 94 83 160 139 25 21 57
49 71 61 13 13 46 41 73 63 27 22 53 45 59 51 6 5 36 32 66 59 159 139 227
203 365 340 144 143 245 256 245 276 0 5 -25 25 -55 45 -30 20 -55 40 -55 45
0 4 -8 10 -17 13 -10 4 -44 30 -75 59 -31 28 -67 60 -79 71 -12 10 -41 36 -64
57 l-42 39 -24 -21z"/>
<path d="M11510 9779 c-25 -23 -71 -64 -104 -93 -32 -28 -73 -64 -91 -81 -17
-16 -63 -57 -100 -90 -38 -33 -73 -64 -79 -70 -91 -81 -246 -220 -286 -255
-120 -105 -157 -138 -177 -156 -12 -12 -57 -52 -100 -90 -42 -38 -81 -73 -87
-79 -6 -5 -49 -44 -96 -85 -106 -94 -154 -137 -195 -175 -69 -64 -112 -102
-175 -155 -83 -70 -230 -217 -230 -229 0 -6 -6 -14 -13 -18 -7 -4 -18 -21 -25
-36 -10 -24 -10 -29 6 -34 9 -4 19 -9 22 -13 3 -3 21 -17 40 -30 45 -32 69
-51 171 -141 34 -30 79 -71 99 -91 l38 -38 172 150 c94 83 178 156 186 163 8
7 29 26 47 42 19 17 60 53 92 80 82 70 134 116 161 143 13 12 25 22 28 22 3 0
18 12 34 28 47 45 123 112 127 112 2 0 16 12 32 28 16 15 52 47 80 72 29 25
75 65 104 90 28 25 69 61 89 80 33 30 82 74 199 178 32 27 246 231 345 327 60
58 126 141 126 159 0 2 -30 26 -67 52 -38 27 -73 53 -79 59 -6 5 -38 33 -70
60 -32 28 -83 74 -113 102 -31 29 -58 53 -61 53 -3 0 -25 -19 -50 -41z"/>
</g>
</svg>
